<svg width="502" height="265" viewBox="0 0 502 265" fill="none" xmlns="http://www.w3.org/2000/svg">
<path d="M175.16 168.273L174.238 168.043C168.242 183.613 159.364 192.609 142.185 192.609C118.664 192.609 107.595 174.617 107.595 150.858C107.595 127.099 119.355 109.337 144.26 109.337C157.174 109.337 166.167 115.104 173.777 129.29L174.699 129.059L172.393 112.797C166.744 110.26 155.79 107.03 144.721 107.03C117.049 107.03 99.9851 126.291 99.9851 150.858C99.9851 175.424 117.965 194.916 144.368 194.916C158.666 194.916 168.473 189.264 172.854 185.919L175.16 168.273Z" fill="#001D23"/>
<path d="M236.854 193.186L242.158 174.501L241.235 174.155C235.009 185.112 229.82 190.071 222.326 190.417L198.344 191.225V123.062C198.344 116.488 199.151 113.835 202.956 108.991V108.76H187.506V108.991C191.31 113.835 192.118 116.603 192.118 123.062V178.884C192.118 185.343 191.31 188.111 187.506 192.955V193.186H236.854Z" fill="#001D23"/>
<path d="M285.545 194.916C307.337 194.916 311.841 180.729 311.841 164.236V124.907C311.841 117.641 313.224 114.643 318.989 108.991V108.76H301.118V108.991C307.92 114.643 309.419 117.641 309.419 124.907V164.352C309.419 178.999 303.77 192.378 283.938 192.378C269.526 192.378 257.65 185.227 257.65 165.39V123.408C257.65 116.719 259.149 113.143 262.262 108.991V108.76H246.812V108.991C250.617 113.951 251.424 116.719 251.424 123.408V165.736C251.424 186.496 268.481 194.916 285.545 194.916Z" fill="#001D23"/>
<path d="M353.993 193.186C375.209 193.186 384.894 183.728 384.894 169.773C384.894 159.623 379.59 150.166 365.869 148.666C375.9 146.014 381.089 137.709 381.089 127.791C381.089 119.371 377.284 108.184 353.648 108.299C346.038 108.299 346.153 108.76 327.013 108.76V108.991C330.818 113.835 331.625 116.603 331.625 123.062V178.884C331.625 185.343 330.818 188.111 327.013 192.955V193.186H353.993ZM337.852 148.09V111.182C342.233 110.836 347.652 110.606 353.302 110.606C367.483 110.606 374.747 116.603 374.747 128.598C374.747 137.94 370.481 148.09 357.452 148.09H337.852ZM353.648 190.879C347.998 190.879 342.464 190.533 337.852 190.071V150.396H358.605C371.634 150.396 377.976 158.585 377.976 170.234C377.976 182.69 370.597 190.879 353.648 190.879Z" fill="#001D23"/>
<path fill-rule="evenodd" clip-rule="evenodd" d="M234.402 260.04C229.845 263.165 224.293 265 218.302 265C202.814 265 190.258 252.736 190.258 237.608C190.258 222.48 202.814 210.216 218.302 210.216C224.293 210.216 229.845 212.051 234.402 215.176C238.958 212.051 244.511 210.216 250.502 210.216C256.492 210.216 262.045 212.051 266.601 215.176C271.158 212.051 276.71 210.216 282.701 210.216C298.189 210.216 310.745 222.48 310.745 237.608C310.745 252.736 298.189 265 282.701 265C276.71 265 271.158 263.165 266.601 260.04C262.045 263.165 256.492 265 250.502 265C244.511 265 238.958 263.165 234.402 260.04ZM232.661 258.744C228.548 261.415 223.611 262.971 218.302 262.971C203.961 262.971 192.335 251.616 192.335 237.608C192.335 223.6 203.961 212.245 218.302 212.245C223.611 212.245 228.548 213.801 232.661 216.472C226.429 221.496 222.457 229.099 222.457 237.608C222.457 246.117 226.429 253.72 232.661 258.744ZM234.402 257.509C228.391 252.864 224.534 245.676 224.534 237.608C224.534 229.54 228.391 222.352 234.402 217.707C240.413 222.352 244.269 229.54 244.269 237.608C244.269 245.676 240.413 252.864 234.402 257.509ZM250.502 212.245C255.811 212.245 260.748 213.801 264.86 216.472C258.628 221.496 254.656 229.099 254.656 237.608C254.656 246.117 258.628 253.72 264.86 258.744C260.748 261.415 255.811 262.971 250.502 262.971C245.192 262.971 240.255 261.415 236.143 258.744C242.375 253.72 246.347 246.117 246.347 237.608C246.347 229.099 242.375 221.496 236.143 216.472C240.255 213.801 245.192 212.245 250.502 212.245ZM256.734 237.608C256.734 245.676 260.59 252.864 266.601 257.509C272.612 252.864 276.469 245.676 276.469 237.608C276.469 229.54 272.612 222.352 266.601 217.707C260.59 222.352 256.734 229.54 256.734 237.608ZM278.546 237.608C278.546 246.117 274.574 253.72 268.342 258.744C272.455 261.415 277.392 262.971 282.701 262.971C297.042 262.971 308.668 251.616 308.668 237.608C308.668 223.6 297.042 212.245 282.701 212.245C277.392 212.245 272.455 213.801 268.342 216.472C274.574 221.496 278.546 229.099 278.546 237.608Z" fill="#001D23"/>
<path d="M35.2749 94.7094C45.1661 94.7094 52.9123 92.4181 58.6325 87.5808C64.2336 82.8708 67.0937 76.3786 67.0937 68.1042C67.0937 61.3575 64.9486 55.8837 60.8968 51.8101C56.7258 47.7366 49.933 44.5542 40.6376 42.2628L33.1298 40.4807C25.2644 38.6985 20.0209 36.5344 17.3991 33.9885C14.539 31.5698 13.2281 28.1328 13.2281 23.6774C13.2281 19.3492 14.7773 15.9122 17.9949 13.3663C21.2126 10.9476 25.8603 9.67462 31.8189 9.67462C39.6842 9.67462 45.2853 11.2022 48.7413 14.2573C52.1973 17.3125 54.2232 22.0225 54.6999 28.3874H64.9486C64.8295 24.5684 64.2336 21.0041 63.0419 17.6944C61.8502 14.5119 60.0626 11.5841 57.6791 8.78354C55.1765 5.98299 51.7206 3.81893 47.3112 2.29136C42.9018 0.763783 37.7775 0 31.8189 0C23.0002 0 15.969 2.16406 10.7255 6.49218C5.4819 10.8203 2.86012 16.5487 2.86012 23.6774C2.86012 31.0606 5.00521 36.6617 9.2954 40.7352C13.5856 44.8088 20.0209 47.8639 28.6012 49.9007L36.1091 51.6828C43.7361 53.465 48.9796 55.6291 52.0781 58.0477C55.1765 60.4664 56.7258 63.7761 56.7258 68.1042C56.7258 73.7053 54.819 77.9062 51.1247 80.7067C47.4304 83.6345 42.1868 85.0348 35.2749 85.0348C18.8291 85.0348 10.6063 77.6516 10.3679 62.7577H0C0 73.4507 3.21764 81.3432 9.41457 86.6897C15.6115 92.0362 24.1919 94.7094 35.2749 94.7094Z" fill="#001D23"/>
<path d="M68.9241 2.03677V11.7114H97.7637V92.6727H108.132V11.7114H136.971V2.03677H68.9241Z" fill="#001D23"/>
<path d="M205.709 92.6727L171.388 2.03677H160.186L126.341 92.6727H136.828L146.6 66.3221H185.212L195.103 92.6727H205.709ZM150.533 55.6291C154.942 43.7904 159.947 29.7877 165.667 13.6208C174.009 36.4071 179.134 50.4099 181.16 55.5018L181.636 56.6474H150.175L150.533 55.6291Z" fill="#001D23"/>
<path d="M267.769 52.0647C265.862 56.7747 262.525 65.9402 257.758 79.6883C254.183 70.0137 250.966 61.3575 248.105 53.5923L228.442 2.03677H215.333V92.6727H225.105V63.6488C225.105 44.5542 224.986 29.1512 224.748 17.4398C226.654 23.0409 229.157 29.9149 232.256 38.062L253.349 92.6727H261.929L282.904 38.062C286.002 29.9149 288.505 23.0409 290.411 17.4398C290.173 29.1512 290.054 44.5542 290.054 63.6488V92.6727H299.826V2.03677H286.717L267.769 52.0647Z" fill="#001D23"/>
<path d="M327.696 92.6727V2.03677H317.686V92.6727H327.696Z" fill="#001D23"/>
<path d="M403.116 32.5882C403.116 51.9374 403.235 67.595 403.474 79.4337C399.779 72.8143 393.94 62.5031 385.836 48.755L357.712 2.03677H345.556V92.6727H355.448V62.1212C355.448 42.772 355.328 27.2417 355.09 15.2757C358.665 22.0225 364.624 32.2063 372.727 45.9544L400.852 92.6727H413.008V2.03677H403.116V32.5882Z" fill="#001D23"/>
<path d="M502 92.6727L467.679 2.03677H456.476L422.632 92.6727H433.119L442.891 66.3221H481.502L491.394 92.6727H502ZM446.824 55.6291C451.233 43.7904 456.238 29.7877 461.958 13.6208C470.3 36.4071 475.425 50.4099 477.451 55.5018L477.927 56.6474H446.466L446.824 55.6291Z" fill="#001D23"/>
</svg>
