<svg width="66" height="30" viewBox="0 0 66 30" fill="none" xmlns="http://www.w3.org/2000/svg">
<path fill-rule="evenodd" clip-rule="evenodd" d="M23.5212 27.2836C21.0934 28.9953 18.135 30 14.9429 30C6.69016 30 0 23.2843 0 15C0 6.71572 6.69016 0 14.9429 0C18.135 0 21.0934 1.00474 23.5212 2.71639C25.949 1.00474 28.9074 0 32.0995 0C35.2917 0 38.25 1.00474 40.6778 2.71639C43.1057 1.00474 46.064 0 49.2562 0C57.5089 0 64.199 6.71572 64.199 15C64.199 23.2843 57.5089 30 49.2562 30C46.064 30 43.1057 28.9953 40.6778 27.2836C38.25 28.9953 35.2917 30 32.0995 30C28.9074 30 25.949 28.9953 23.5212 27.2836ZM22.5937 26.5741C20.4023 28.0367 17.7717 28.8889 14.9429 28.8889C7.30147 28.8889 1.10688 22.6706 1.10688 15C1.10688 7.32938 7.30147 1.11111 14.9429 1.11111C17.7717 1.11111 20.4023 1.96331 22.5937 3.42591C19.2731 6.17713 17.1566 10.3405 17.1566 15C17.1566 19.6595 19.2731 23.8229 22.5937 26.5741ZM23.5212 25.898C20.3185 23.3542 18.2635 19.418 18.2635 15C18.2635 10.582 20.3185 6.64584 23.5212 4.10203C26.724 6.64584 28.7789 10.582 28.7789 15C28.7789 19.418 26.724 23.3542 23.5212 25.898ZM32.0995 1.11111C34.9284 1.11111 37.5589 1.96331 39.7503 3.42591C36.4298 6.17713 34.3133 10.3405 34.3133 15C34.3133 19.6595 36.4298 23.8229 39.7503 26.5741C37.5589 28.0367 34.9284 28.8889 32.0995 28.8889C29.2707 28.8889 26.6401 28.0367 24.4487 26.5741C27.7693 23.8229 29.8858 19.6595 29.8858 15C29.8858 10.3405 27.7693 6.17713 24.4487 3.42591C26.6401 1.96331 29.2707 1.11111 32.0995 1.11111ZM35.4202 15C35.4202 19.418 37.4751 23.3542 40.6778 25.898C43.8806 23.3542 45.9355 19.418 45.9355 15C45.9355 10.582 43.8806 6.64584 40.6778 4.10203C37.4751 6.64584 35.4202 10.582 35.4202 15ZM47.0424 15C47.0424 19.6595 44.9259 23.8229 41.6054 26.5741C43.7968 28.0367 46.4273 28.8889 49.2562 28.8889C56.8976 28.8889 63.0921 22.6706 63.0921 15C63.0921 7.32938 56.8976 1.11111 49.2562 1.11111C46.4273 1.11111 43.7968 1.96331 41.6054 3.42591C44.9259 6.17713 47.0424 10.3404 47.0424 15Z" fill="#001D23"/>
<path d="M62.0419 1.37398V3.26087H62.5739V1.37398H63.2681V0.869565H61.3387V1.37398H62.0419ZM64.9181 1.99049C64.864 2.12126 64.8189 2.28006 64.7828 2.45754L64.6476 2.00917L64.2599 0.869565H63.5566V3.26087H64.0706V2.51359C64.0706 2.1306 64.0615 1.8784 64.0615 1.75696C64.0796 1.80367 64.0976 1.85971 64.1156 1.9251L64.5664 3.26087H64.9902L65.441 1.9251C65.459 1.85971 65.4771 1.80367 65.4951 1.75696C65.4861 1.8784 65.4861 2.1306 65.4861 2.51359V3.26087H66V0.869565H65.2967L64.9181 1.99049Z" fill="#001D23"/>
</svg>
